<?xml version="1.0" standalone="no"?>
<!DOCTYPE svg PUBLIC "-//W3C//DTD SVG 20010904//EN"
 "http://www.w3.org/TR/2001/REC-SVG-20010904/DTD/svg10.dtd">
<svg version="1.0" xmlns="http://www.w3.org/2000/svg"
 width="5000.000000pt" height="5000.000000pt" viewBox="0 0 5000.000000 5000.000000"
 preserveAspectRatio="xMidYMid meet">

<g transform="translate(0.000000,5000.000000) scale(0.100000,-0.100000)"
fill="#000000" stroke="none">
<path d="M14880 45028 c-30 -4 -92 -26 -137 -48 -321 -158 -393 -575 -143
-831 61 -62 117 -98 206 -131 l59 -23 10312 -5 c5671 -3 10314 -7 10317 -10 3
-4 -38 -40 -91 -80 -210 -162 -655 -520 -890 -717 -2532 -2115 -4654 -4537
-6137 -7006 -494 -822 -951 -1712 -1301 -2532 -751 -1760 -1198 -3523 -1344
-5295 -38 -452 -43 -572 -48 -1140 -7 -697 10 -1110 67 -1700 383 -3913 2221
-7808 5484 -11614 1180 -1377 2597 -2796 4098 -4104 l179 -157 -63 -2 c-35 -2
-4660 -39 -10278 -83 -8628 -68 -10227 -82 -10295 -95 -106 -19 -194 -65 -270
-141 -275 -275 -171 -728 198 -863 l72 -26 505 3 c781 5 19143 150 19770 157
l555 5 -40 -36 c-124 -113 -429 -370 -625 -527 -1649 -1322 -3407 -2209 -5196
-2622 -465 -107 -991 -187 -1409 -213 -66 -4 -4900 -5 -10742 -2 l-10622 5
150 124 c969 798 2010 1780 2899 2736 2545 2737 4370 5685 5373 8675 484 1445
775 2879 881 4350 54 744 54 1583 1 2350 -136 1932 -622 3893 -1444 5817 -309
723 -730 1566 -1148 2297 -919 1607 -2123 3256 -3527 4831 -494 553 -869 949
-1501 1581 -648 648 -1016 999 -1618 1543 l-228 206 10433 5 c9820 5 10436 6
10483 22 116 40 220 121 287 223 61 93 81 175 76 306 -4 104 -6 112 -47 195
-68 137 -165 223 -311 276 l-65 23 -11170 0 c-10815 0 -11172 -1 -11230 -18
-99 -31 -171 -75 -239 -148 -127 -134 -172 -301 -131 -477 32 -135 84 -204
275 -365 1331 -1122 2658 -2383 3745 -3557 3039 -3284 4988 -6606 5850 -9975
563 -2196 656 -4414 279 -6615 -567 -3311 -2183 -6587 -4786 -9702 -877 -1049
-1954 -2158 -2994 -3082 -746 -664 -1589 -1339 -2115 -1693 -179 -121 -269
-274 -269 -458 0 -221 144 -420 360 -497 l65 -23 11410 -5 c6276 -3 11482 -2
11570 2 434 20 917 84 1435 190 1580 322 3192 1014 4695 2017 1727 1153 3315
2697 4758 4628 1230 1647 2329 3534 3329 5718 1036 2260 1977 4921 2731 7725
198 733 199 739 204 841 8 156 -34 266 -144 380 -105 110 -222 159 -374 159
-106 0 -191 -24 -275 -78 -74 -48 -155 -136 -188 -205 -14 -28 -64 -198 -111
-377 -696 -2636 -1472 -4944 -2375 -7065 -1229 -2886 -2649 -5309 -4271 -7290
-248 -303 -622 -734 -795 -915 l-71 -74 -149 124 c-1412 1180 -2833 2527
-3969 3765 -1076 1171 -2015 2351 -2786 3503 -236 350 -430 653 -427 662 2 4
977 1273 2168 2819 1559 2025 2174 2830 2197 2879 110 231 29 511 -190 653
-198 128 -457 108 -627 -48 -28 -26 -966 -1236 -2083 -2687 -1118 -1452 -2036
-2640 -2042 -2639 -27 2 -541 998 -752 1458 -1412 3082 -1859 6137 -1347 9210
341 2048 1121 4098 2321 6103 1256 2099 2976 4150 5043 6013 980 883 2021
1706 2962 2343 258 174 301 213 353 316 55 108 71 255 40 369 -51 192 -223
350 -415 380 -78 12 -22265 21 -22350 9z"/>
</g>
</svg>
